<mxfile host="65bd71144e">
    <diagram id="CA5tg0KPKQhrcDMw_oEu" name="Page-1">
        <mxGraphModel dx="832" dy="563" grid="1" gridSize="10" guides="1" tooltips="1" connect="1" arrows="1" fold="1" page="1" pageScale="1" pageWidth="850" pageHeight="1100" math="0" shadow="0">
            <root>
                <mxCell id="0"/>
                <mxCell id="1" parent="0"/>
                <mxCell id="8" value="Pizza" style="swimlane;whiteSpace=wrap;html=1;" vertex="1" parent="1">
                    <mxGeometry x="30" y="130" width="200" height="200" as="geometry"/>
                </mxCell>
                <mxCell id="19" value="id" style="text;html=1;align=center;verticalAlign=middle;resizable=0;points=[];autosize=1;strokeColor=none;fillColor=none;" vertex="1" parent="8">
                    <mxGeometry y="20" width="30" height="30" as="geometry"/>
                </mxCell>
                <mxCell id="22" value="name" style="text;html=1;align=center;verticalAlign=middle;resizable=0;points=[];autosize=1;strokeColor=none;fillColor=none;" vertex="1" parent="8">
                    <mxGeometry x="40" y="20" width="50" height="30" as="geometry"/>
                </mxCell>
                <mxCell id="26" value="1" style="text;html=1;align=center;verticalAlign=middle;resizable=0;points=[];autosize=1;strokeColor=none;fillColor=none;" vertex="1" parent="8">
                    <mxGeometry y="50" width="30" height="30" as="geometry"/>
                </mxCell>
                <mxCell id="27" value="2" style="text;html=1;align=center;verticalAlign=middle;resizable=0;points=[];autosize=1;strokeColor=none;fillColor=none;" vertex="1" parent="8">
                    <mxGeometry y="80" width="30" height="30" as="geometry"/>
                </mxCell>
                <mxCell id="28" value="meat lovers" style="text;html=1;align=center;verticalAlign=middle;resizable=0;points=[];autosize=1;strokeColor=none;fillColor=none;" vertex="1" parent="8">
                    <mxGeometry x="30" y="50" width="90" height="30" as="geometry"/>
                </mxCell>
                <mxCell id="29" value="vegetarian" style="text;html=1;align=center;verticalAlign=middle;resizable=0;points=[];autosize=1;strokeColor=none;fillColor=none;" vertex="1" parent="8">
                    <mxGeometry x="30" y="80" width="80" height="30" as="geometry"/>
                </mxCell>
                <mxCell id="10" value="Customer" style="swimlane;whiteSpace=wrap;html=1;" vertex="1" parent="1">
                    <mxGeometry x="590" y="130" width="200" height="200" as="geometry"/>
                </mxCell>
                <mxCell id="23" value="id" style="text;html=1;align=center;verticalAlign=middle;resizable=0;points=[];autosize=1;strokeColor=none;fillColor=none;" vertex="1" parent="10">
                    <mxGeometry x="5" y="20" width="30" height="30" as="geometry"/>
                </mxCell>
                <mxCell id="24" value="name" style="text;html=1;align=center;verticalAlign=middle;resizable=0;points=[];autosize=1;strokeColor=none;fillColor=none;" vertex="1" parent="10">
                    <mxGeometry x="35" y="20" width="50" height="30" as="geometry"/>
                </mxCell>
                <mxCell id="30" value="1" style="text;html=1;align=center;verticalAlign=middle;resizable=0;points=[];autosize=1;strokeColor=none;fillColor=none;" vertex="1" parent="10">
                    <mxGeometry x="5" y="50" width="30" height="30" as="geometry"/>
                </mxCell>
                <mxCell id="31" value="2" style="text;html=1;align=center;verticalAlign=middle;resizable=0;points=[];autosize=1;strokeColor=none;fillColor=none;" vertex="1" parent="10">
                    <mxGeometry x="5" y="80" width="30" height="30" as="geometry"/>
                </mxCell>
                <mxCell id="33" value="Melissa" style="text;html=1;align=center;verticalAlign=middle;resizable=0;points=[];autosize=1;strokeColor=none;fillColor=none;" vertex="1" parent="10">
                    <mxGeometry x="30" y="50" width="60" height="30" as="geometry"/>
                </mxCell>
                <mxCell id="32" value="Zaq" style="text;html=1;align=center;verticalAlign=middle;resizable=0;points=[];autosize=1;strokeColor=none;fillColor=none;" vertex="1" parent="10">
                    <mxGeometry x="40" y="85" width="40" height="30" as="geometry"/>
                </mxCell>
                <mxCell id="14" value="Order" style="swimlane;whiteSpace=wrap;html=1;startSize=23;" vertex="1" parent="1">
                    <mxGeometry x="260" y="130" width="310" height="200" as="geometry"/>
                </mxCell>
                <mxCell id="17" value="Pizza_Id" style="text;html=1;align=center;verticalAlign=middle;resizable=0;points=[];autosize=1;strokeColor=none;fillColor=none;" vertex="1" parent="14">
                    <mxGeometry x="40" y="30" width="70" height="30" as="geometry"/>
                </mxCell>
                <mxCell id="18" value="Customer_Id" style="text;html=1;align=center;verticalAlign=middle;resizable=0;points=[];autosize=1;strokeColor=none;fillColor=none;" vertex="1" parent="14">
                    <mxGeometry x="120" y="30" width="90" height="30" as="geometry"/>
                </mxCell>
                <mxCell id="37" value="p1" style="text;html=1;align=center;verticalAlign=middle;resizable=0;points=[];autosize=1;strokeColor=none;fillColor=none;" vertex="1" parent="14">
                    <mxGeometry x="56" y="60" width="40" height="30" as="geometry"/>
                </mxCell>
                <mxCell id="47" value="" style="edgeStyle=none;html=1;" edge="1" parent="14" source="43" target="46">
                    <mxGeometry relative="1" as="geometry"/>
                </mxCell>
                <mxCell id="43" value="Price" style="text;html=1;align=center;verticalAlign=middle;resizable=0;points=[];autosize=1;strokeColor=none;fillColor=none;" vertex="1" parent="14">
                    <mxGeometry x="240" y="30" width="50" height="30" as="geometry"/>
                </mxCell>
                <mxCell id="38" value="c1" style="text;html=1;align=center;verticalAlign=middle;resizable=0;points=[];autosize=1;strokeColor=none;fillColor=none;" vertex="1" parent="14">
                    <mxGeometry x="135" y="60" width="40" height="30" as="geometry"/>
                </mxCell>
                <mxCell id="46" value="15.00" style="text;html=1;align=center;verticalAlign=middle;resizable=0;points=[];autosize=1;strokeColor=none;fillColor=none;" vertex="1" parent="14">
                    <mxGeometry x="240" y="60" width="50" height="30" as="geometry"/>
                </mxCell>
                <mxCell id="49" value="c2" style="text;html=1;align=center;verticalAlign=middle;resizable=0;points=[];autosize=1;strokeColor=none;fillColor=none;" vertex="1" parent="14">
                    <mxGeometry x="140" y="100" width="40" height="30" as="geometry"/>
                </mxCell>
                <mxCell id="48" value="p2" style="text;html=1;align=center;verticalAlign=middle;resizable=0;points=[];autosize=1;strokeColor=none;fillColor=none;" vertex="1" parent="14">
                    <mxGeometry x="51" y="100" width="40" height="30" as="geometry"/>
                </mxCell>
                <mxCell id="50" value="13.00" style="text;html=1;align=center;verticalAlign=middle;resizable=0;points=[];autosize=1;strokeColor=none;fillColor=none;" vertex="1" parent="14">
                    <mxGeometry x="235" y="100" width="50" height="30" as="geometry"/>
                </mxCell>
            </root>
        </mxGraphModel>
    </diagram>
</mxfile>